HIERARCHY
ROOT Hips
{
  OFFSET 0.382225 96.6805 0.598322
  CHANNELS 6 Xposition Yposition Zposition Zrotation Xrotation Yrotation
  JOINT Spine
  {
    OFFSET 10.8089 -0.851416 0
    CHANNELS 3 Zrotation Xrotation Yrotation
    JOINT Spine1
    {
      OFFSET 18.8753 3.80116 0
      CHANNELS 3 Zrotation Xrotation Yrotation
      JOINT Spine2
      {
        OFFSET 13.4073 0.420477 0
        CHANNELS 3 Zrotation Xrotation Yrotation
        JOINT LeftShoulder
        {
          OFFSET 11.8837 -2.73209 -3.78198
          CHANNELS 3 Zrotation Xrotation Yrotation
          JOINT LeftArm
          {
            OFFSET 15.7849 0 -2.35849e-005
            CHANNELS 3 Zrotation Xrotation Yrotation
            JOINT LeftForeArm
            {
              OFFSET 30.3399 0 0
              CHANNELS 3 Zrotation Xrotation Yrotation
              JOINT LeftHand
              {
                OFFSET 26.9751 0 2.45913e-005
                CHANNELS 3 Zrotation Xrotation Yrotation
                End Site
                {
                  OFFSET 8 0 0
                }
              }
            }
          }
        }
        JOINT RightShoulder
        {
          OFFSET 11.8838 -2.7321 3.782
          CHANNELS 3 Zrotation Xrotation Yrotation
          JOINT RightArm
          {
            OFFSET -15.7848 0 -1.07056e-005
            CHANNELS 3 Zrotation Xrotation Yrotation
            JOINT RightForeArm
            {
              OFFSET -30.34 1.02096e-005 -2.53607e-005
              CHANNELS 3 Zrotation Xrotation Yrotation
              JOINT RightHand
              {
                OFFSET -26.9752 2.07668e-005 0
                CHANNELS 3 Zrotation Xrotation Yrotation
                End Site
                {
                  OFFSET -8 0 0
                }
              }
            }
          }
        }
        JOINT Neck
        {
          OFFSET 16.5588 -0.355318 0
          CHANNELS 3 Zrotation Xrotation Yrotation
          JOINT Head
          {
            OFFSET 9.28361 0.364157 0
            CHANNELS 3 Zrotation Xrotation Yrotation
            End Site
            {
              OFFSET 0 0 0
            }
          }
        }
      }
    }
  }
  JOINT LeftUpLeg
  {
    OFFSET -1.44883 -0.531424 -9.00581
    CHANNELS 3 Zrotation Xrotation Yrotation
    JOINT LeftLeg
    {
      OFFSET -42.572 0.0788889 -0.011964
      CHANNELS 3 Zrotation Xrotation Yrotation
      JOINT LeftFoot
      {
        OFFSET -40.1967 0 0
        CHANNELS 3 Zrotation Xrotation Yrotation
				JOINT LeftToe
        {
          OFFSET -10.4538 -16.5779 0.0801563
          CHANNELS 3 Zrotation Xrotation Yrotation
          End Site
          {
            OFFSET -1.0 -1.0 0.0
          }
        }
      }
    }
  }
  JOINT RightUpLeg
  {
    OFFSET -1.44865 -0.531427 9.0058
    CHANNELS 3 Zrotation Xrotation Yrotation
    JOINT RightLeg
    {
      OFFSET 42.5723 -3.24776e-005 0
      CHANNELS 3 Zrotation Xrotation Yrotation
      JOINT RightFoot
      {
        OFFSET 40.1968 0 -1.14003e-005
        CHANNELS 3 Zrotation Xrotation Yrotation
				JOINT RightToe
        {
          OFFSET 10.4538 16.5778 -0.0801573
          CHANNELS 3 Zrotation Xrotation Yrotation
          End Site
          {
            OFFSET -1.0 -1.0 0.0
          }
        }
      }
    }
  }
}
MOTION
Frames:	20
Frame Time:	0.0333333
-32.3125 81.5683 -35.3043 99.1451 70.8062 18.9792 -37.7478 -8.01683 -10.7912 13.5991 0.0224956 0.0448496 2.7794 1.93418e-006 1.65929e-005 1.02727 15.7876 64.7335 -1.87824 16.903 27.4875 -42.2313 -7.11177 -11.0986 -172.731 -55.4127 -157.639 171.328 21.2739 101.291 -0.164906 34.1424 45.6985 -25.267 -8.1373 -1.53955 10.3642 -57.3182 19.1263 -23.508 4.63459e-006 -5.90926e-006 -54.7891 -44.1134 -56.4375 42.1438 13.5573 -25.5668 -78.6232 0.147533 -3.99459 31.9184 -28.2391 -14.4566 -90 0 0 -141.001 -6.56527 -26.9028 -93.1958 2.93395 -6.06325 -23.7189 -19.2977 12.0179 -90 0 0
-24.1588 83.8665 -33.0216 96.8166 77.96 22.1242 -38.8013 -16.0042 -5.29397 12.7841 0.0610524 0.123992 2.7794 1.93418e-006 1.65929e-005 2.12562 14.936 58.8629 -16.4348 13.855 6.38415 -30.4536 -10.7687 -6.42583 -168.282 -59.7151 -152.168 172.41 23.6754 96.6733 -15.2085 36.6696 59.763 -41.3283 -8.85236 -2.79643 10.3906 -54.6937 23.3068 -23.508 4.63459e-006 -5.90926e-006 -51.8715 -40.7811 -57.4388 40.251 -0.336584 -24.1277 -78.8931 -0.17125 -4 30.1919 -21.5228 -7.10196 -90 0 0 -120.543 10.9815 -10.8245 -106.979 4.8465 -5.63523 -23.6195 -10.5693 7.85125 -90 0 0
-15.2814 86.1977 -32.8117 -80.2442 82.2862 -159.422 -41.7076 -25.6322 -5.13866 12.0492 0.0948545 0.195813 2.7794 1.93418e-006 1.65929e-005 -3.45295 2.5536 54.5489 -29.7457 5.85917 -4.95392 -24.0467 -12.2964 -3.64509 -147.374 -71.6759 -133.46 175.145 24.5783 90.3339 -28.9417 39.9807 74.301 -56.8661 -9.15718 -4.17995 10.6971 -56.7589 25.8353 -23.508 4.63459e-006 -5.90926e-006 -46.7683 -38.1169 -53.7437 36.3073 -13.9411 -21.1409 -76.5203 -0.42373 -3.99395 30.3162 -16.8787 -7.75468 -90 0 0 -123.631 9.68496 -3.97084 -8.33599 -3.25455 1.622 41.9349 -0.376153 107.499 -90 0 0
-7.02943 90.833 -37.4439 -73.1735 62.1973 -161.576 -44.8269 -26.3502 -10.3253 15.0639 -0.0496605 -0.0960134 2.7794 1.93418e-006 1.65929e-005 -8.38094 -7.25789 58.3939 -57.8209 -14.456 -4.51459 -27.9496 -11.405 -5.35633 -159.144 -68.4922 -143.301 175.969 23.6363 89.1478 -33.319 40.0017 77.1424 -66.3464 -9.15813 -5.04635 10.2019 -58.4236 25.9827 -23.508 4.63459e-006 -5.90926e-006 -30.6469 -30.8601 -45.5214 34.4231 -22.0212 -23.3686 -68.8031 -1.09667 -3.66102 27.9495 -8.28224 -14.4867 -90 0 0 -123.686 2.32707 3.08092 -14.518 -4.9253 0.635676 21.9898 -14.3899 54.0351 -90 0 0
-0.673869 94.4989 -44.4635 -71.253 40.6381 -163.419 -45.4114 -27.919 -12.0223 15.4812 -0.0708625 -0.135766 2.7794 1.93418e-006 1.65929e-005 -7.47237 -7.84688 63.9171 -85.0443 -22.3308 9.21346 -39.7082 -7.98521 -10.1536 -172.982 -65.0244 -153.487 176.111 18.6836 92.1194 -25.9968 38.8255 70.8028 -69.0858 -9.13208 -5.29557 11.2227 -59.9639 26.8701 -23.508 4.63459e-006 -5.90926e-006 -6.50933 -18.8525 -36.1611 39.335 -13.2185 -20.1499 -57.1108 -2.23903 -2.95729 23.4969 11.2532 -24.7022 -90 0 0 -124.774 -9.31553 7.6046 -14.5385 -5.48317 0.692323 8.02294 -13.2483 9.11587 -90 0 0
2.72143 95.4402 -52.217 -73.6979 17.3415 -166.801 -44.8279 -29.3139 -12.3309 8.84293 0.231454 0.513954 2.7794 1.93418e-006 1.65929e-005 -3.52144 2.16005 67.1749 -103.263 -20.64 25.8397 -57.7224 -0.76021 -16.0666 -179.119 -69.6846 -157.384 175.32 16.6023 96.1965 -19.6892 35.0564 56.1947 -71.6973 -9.09554 -5.53189 14.9717 -65.4279 29.3772 -23.508 4.63459e-006 -5.90926e-006 23.5537 -2.71624 -25.4852 40.9139 5.09746 -14.5713 -54.0463 -2.65913 -2.73119 20.0886 12.5112 -22.8561 -90 0 0 -129.909 -10.5199 5.51963 -17.9901 -5.41155 0.162332 3.19476 -6.14635 14.6083 -90 0 0
4.17605 93.9701 -59.7724 -76.5365 -5.00112 -169.254 -43.6055 -25.5723 -14.4393 7.23255 0.293291 0.676473 2.7794 1.93418e-006 1.65929e-005 -2.10503 7.08973 68.6686 -99.936 -12.3905 44.151 -72.0722 6.33545 -19.0909 170.088 -66.7853 -166.458 175.489 17.2006 95.104 -18.8587 33.4665 46.1675 -67.843 -9.14526 -5.18265 15.9823 -65.5129 30.4035 -23.508 4.63459e-006 -5.90926e-006 34.4417 16.775 -20.8795 40.1481 16.7893 -13.7514 -65.7058 -1.70236 -3.48492 12.7417 9.57613 -16.6626 -90 0 0 -133.893 -11.2972 5.05765 -21.9087 -5.31218 -0.421727 4.84731 -14.482 19.3245 -90 0 0
4.11357 90.6578 -66.8365 -81.0196 -27.7605 -173.962 -40.3192 -21.8547 -13.4947 6.92776 0.304461 0.707423 2.7794 1.93418e-006 1.65929e-005 -1.8124 8.84866 70.7009 -89.7276 -3.42843 40.9297 -63.5538 2.01216 -17.4997 -174.513 -68.0534 -153.989 175.832 16.5836 94.7411 -13.9267 31.295 39.305 -62.878 -9.17434 -4.72945 13.0792 -63.5295 26.5571 -23.508 4.63459e-006 -5.90926e-006 38.2905 26.9417 -22.7962 35.6705 19.6914 -14.1572 -78.2875 -0.334853 -3.95107 3.80201 12.5637 -20.943 -90 0 0 -139.851 -11.8462 2.98542 -22.8991 -5.31543 -0.543033 2.45979 -15.4002 15.6233 -90 0 0
3.8972 86.7665 -72.9504 -86.5508 -51.1034 -179.09 -37.7554 -16.0513 -14.2605 9.29566 0.21326 0.46857 2.7794 1.93418e-006 1.65929e-005 -3.35004 1.99158 73.3168 -79.3964 -2.67301 23.7174 -47.1786 -5.26175 -12.85 -166.859 -65.6547 -148.181 176.355 16.8467 93.0026 -6.71381 23.4459 34.8255 -64.0001 -9.17105 -4.83209 10.7712 -66.6491 24.2298 -23.508 4.63459e-006 -5.90926e-006 38.1921 27.2249 -18.1215 33.7449 12.3134 -16.0007 -91.7138 1.34517 -4.06498 2.4588 15.9872 -24.4141 -90 0 0 -138.213 -12.0261 -1.43288 -40.4553 -3.98971 -2.84613 4.51045 2.07171 8.78414 -90 0 0
4.13004 84.2048 -76.8531 -104.432 -70.4314 165.169 -38.4217 -15.1432 -17.9973 11.5622 0.116761 0.24363 2.7794 1.93418e-006 1.65929e-005 -4.15284 -3.18125 75.2756 -65.681 -13.7531 11.6943 -47.0023 -5.33058 -12.7902 119.924 -67.7442 147.964 176.091 16.401 94.173 -11.0406 2.78333 24.3256 -61.7906 -9.16957 -4.62997 6.72442 -70.1255 21.948 -23.508 4.63459e-006 -5.90926e-006 31.8696 28.0537 -8.68332 28.2062 4.43471 -18.9595 -96.5938 2.10333 -4.01046 3.29146 15.6779 -25.7223 -90 0 0 -141.646 -1.39811 -10.5051 -48.4486 -3.15772 -3.76715 5.89909 5.72069 8.90865 -90 0 0
4.38804 82.8568 -79.3414 -134.208 -79.3224 133.8 -32.5946 -15.116 -14.5653 15.6024 -0.0770846 -0.147291 2.7794 1.93418e-006 1.65929e-005 -4.3311 -3.06899 73.8114 -54.3826 -22.3442 9.08681 -50.2625 -4.02061 -13.8676 91.052 -51.7377 130.348 177.893 9.23556 96.662 -17.077 -16.6857 16.5569 -59.205 -9.17059 -4.39349 6.28254 -71.274 23.2431 -23.508 4.63459e-006 -5.90926e-006 15.1068 20.7921 0.445 22.8383 7.23854 -23.898 -90.9207 1.43049 -4.07246 3.16622 14.5793 -21.9719 -90 0 0 -142.071 -0.0637603 -15.9359 -53.156 -2.58694 -4.25968 5.26383 11.3539 7.33502 -90 0 0
5.24259 82.3991 -80.9476 177.563 -80.2224 84.5385 -27.8513 -9.60003 -10.3679 20.6169 -0.355283 -0.612143 2.7794 1.93418e-006 1.65929e-005 -4.3275 -4.01635 75.1111 -42.6219 -17.7887 4.14025 -52.4446 -3.10333 -14.5506 79.2165 -42.1574 128.36 -179.126 0.931558 94.7845 -19.0508 -28.4634 16.8061 -63.6497 -9.17226 -4.80005 5.33672 -76.227 24.1478 -23.508 4.63459e-006 -5.90926e-006 2.20553 5.62224 7.92382 16.5347 14.0743 -29.4027 -77.9361 -0.197064 -3.94161 4.17205 12.3755 -15.9332 -90 0 0 -144.54 -4.11829 -17.566 -56.2053 -2.19888 -4.55327 2.37055 17.9274 6.04629 -90 0 0
5.87655 81.3239 -83.2117 132.016 -72.5521 38.1 -26.1551 -6.59044 -6.49984 22.9721 -0.499789 -0.821737 2.7794 1.93418e-006 1.65929e-005 -4.16577 -2.99274 74.9282 -31.2751 -12.4766 -2.30798 -53.0625 -2.83803 -14.7382 70.2957 -35.6951 123.117 -177.783 -4.04105 91.061 -24.737 -34.6961 13.9633 -67.9605 -9.14392 -5.19346 1.51228 -74.5983 21.0624 -23.508 4.63459e-006 -5.90926e-006 1.7958 -11.4504 10.5197 14.0488 15.0122 -32.2648 -66.8425 -1.47533 -3.53879 12.7142 10.9335 -11.9723 -90 0 0 -144.929 -5.64757 -20.7354 -61.9879 -1.34965 -5.04697 -1.97361 19.1611 0.0308859 -90 0 0
6.22573 79.1919 -86.1173 112.103 -61.2337 17.7096 -25.3761 -4.61496 -2.01112 23.8329 -0.554744 -0.896856 2.7794 1.93418e-006 1.65929e-005 -3.70102 0.350711 73.0829 -21.1318 -7.06969 -4.67183 -47.6824 -5.06355 -13.0203 61.0421 -24.4685 118.519 -177.681 -5.14633 84.6372 -29.5133 -38.0177 11.3588 -73.0413 -9.07388 -5.65254 1.69528 -72.9263 20.4881 -23.508 4.63459e-006 -5.90926e-006 5.73589 -27.0447 8.52145 15.0794 11.086 -32.4732 -60.3408 -2.39586 -3.17555 25.0079 9.29287 -0.75246 -90 0 0 -142.151 -6.29259 -25.4962 -66.5243 -0.758532 -5.37618 -1.56414 7.60163 5.55526 -90 0 0
6.43458 76.4973 -89.0253 103.996 -49.9009 10.0714 -26.4027 -2.06086 2.0077 21.8385 -0.42917 -0.72159 2.7794 1.93418e-006 1.65929e-005 -3.02617 3.71689 71.4304 -15.1571 -2.17594 -2.62702 -35.099 -9.45565 -8.34458 39.3372 13.2979 122.663 -177.689 -3.60816 79.5098 -30.9345 -42.3926 10.9257 -77.4417 -8.9811 -6.04377 -2.66936 -76.6876 15.9763 -23.508 4.63459e-006 -5.90926e-006 10.6784 -42.8677 3.64586 16.8792 2.96956 -34.3329 -55.6252 -3.70561 -2.84869 24.193 4.73982 29.1824 -90 0 0 -140.053 -6.44526 -28.7536 -65.4898 -0.955604 -5.31056 3.54391 -1.28071 12.4387 -90 0 0
5.89947 74.1901 -91.4854 99.5296 -38.5534 6.76627 -28.9864 -1.44775 5.8838 19.6431 -0.298073 -0.523781 2.7794 1.93418e-006 1.65929e-005 -2.6557 5.4112 72.2559 -12.3308 4.5444 2.95167 -23.8793 -12.3317 -3.57113 -96.2824 16.3098 -129.085 -177.923 -0.707094 81.5728 -30.9321 -45.9667 14.428 -80.1821 -8.90575 -6.28382 -6.85998 -78.8704 12.27 -23.508 4.63459e-006 -5.90926e-006 5.10169 -57.6887 -9.61363 27.7835 -5.30727 -32.929 -63.0556 -3.03272 -3.34317 21.9334 2.54927 29.1846 -90 0 0 -142.591 -8.46406 -29.0876 -58.8741 -1.88123 -4.79354 5.05457 -1.73466 16.3811 -90 0 0
7.12031 72.8755 -92.4391 99.0199 -30.0089 4.41307 -31.5786 -1.44987 12.2082 16.0219 -0.0987659 -0.187089 2.7794 1.93418e-006 1.65929e-005 -2.75655 5.13345 76.0605 -9.98318 -0.0171473 8.41715 -11.6444 -14.3059 2.0634 -126.326 -36.3337 -123.989 -178.656 1.36905 87.3761 -27.3489 -46.7866 26.8601 -78.8088 -8.95335 -6.16245 -18.6803 -82.8552 1.16321 -23.508 4.63459e-006 -5.90926e-006 -17.4436 -65.1988 -35.7877 32.3019 -8.94012 -28.2496 -66.0784 -2.7883 -3.51335 22.2344 -0.786881 30.8086 -90 0 0 -149.548 -12.7882 -31.1169 -56.0312 -2.25828 -4.53705 5.26274 8.76699 17.7432 -90 0 0
9.57042 72.2117 -92.4907 100.117 -24.83 5.67425 -34.7857 0.206022 13.8726 14.6738 -0.0300875 -0.0586668 2.7794 1.93418e-006 1.65929e-005 -2.77775 7.82403 85.7058 -6.80212 -5.09329 14.8149 -5.27527 -14.8505 5.10275 -131.791 -51.8449 -127.004 -179.058 1.62176 91.3265 -24.6623 -43.6674 45.129 -69.5729 -9.12621 -5.33972 -41.9277 -81.0228 -23.3714 -23.508 4.63459e-006 -5.90926e-006 -25.6655 -69.1278 -42.2585 33.4602 -10.5206 -27.7559 -69.2515 -2.48604 -3.66915 24.063 -3.1983 31.3693 -90 0 0 -153.847 -12.5605 -30.3215 -60.0767 -1.66417 -4.89986 7.30414 14.1119 12.1842 -90 0 0
12.2508 72.2409 -92.4952 99.5911 -22.2418 6.21648 -35.9973 2.2502 15.2773 13.8122 0.012222 0.0242407 2.7794 1.93418e-006 1.65929e-005 -3.58801 11.6015 93.5688 1.49348 -6.30057 27.1823 -6.31164 -14.7844 4.60519 -136.177 -55.7361 -130.869 -179.581 2.28005 95.4178 -24.2422 -40.0295 61.1193 -51.7691 -9.08514 -3.72747 -49.7602 -79.5609 -31.3008 -23.508 4.63459e-006 -5.90926e-006 -19.0146 -74.2081 -35.5796 34.9964 -9.90747 -28.185 -71.7819 -2.19418 -3.7789 25.9864 -4.654 30.1991 -90 0 0 -154.206 -9.81266 -29.948 -61.6755 -1.32772 -5.03295 8.48337 14.6699 3.51723 -90 0 0
14.8177 72.5198 -92.3392 98.4057 -20.449 7.42649 -36.2692 3.45216 16.2771 13.2738 0.0380345 0.0763788 2.7794 1.93418e-006 1.65929e-005 -4.50186 16.1207 94.2316 6.26329 5.47406 47.0504 -10.0564 -14.4727 2.81654 -140.758 -57.1009 -135.042 179.612 3.74506 98.6576 -36.6384 -33.3398 63.2112 -31.4587 -8.46936 -1.98347 -67.0995 -84.0868 -51.1491 -23.508 4.63459e-006 -5.90926e-006 -6.52819 -77.0652 -25.2467 36.0701 -10.143 -29.3295 -73.7261 -1.95651 -3.85533 27.8818 -5.00511 29.0785 -90 0 0 -155.229 -6.89104 -29.8301 -59.3805 -1.69 -4.84123 6.75996 17.1246 6.67665 -90 0 0
